<?xml version="1.0" encoding="UTF-8" standalone="no"?>
<svg xmlns="http://www.w3.org/2000/svg" viewBox="0 0 1311 1020">
<rect width="100%" height="100%" fill="black"/>
<path d="M635,24 634,25 634,26 632,28 632,29 631,30 631,31 629,33 629,34 628,35 628,36 626,38 626,39 624,41 624,42 623,43 623,44 621,46 621,47 620,48 620,49 618,51 618,52 616,54 616,55 615,56 615,57 613,59 613,60 612,61 612,62 610,64 610,65 608,67 608,68 607,69 607,70 605,72 605,73 604,74 604,75 602,77 602,78 600,80 600,81 599,82 599,83 597,85 597,86 596,87 596,88 594,90 594,91 593,92 593,93 591,95 591,96 590,97 590,98 588,100 588,101 587,102 587,103 585,105 585,106 583,108 583,109 582,110 582,111 580,113 580,114 578,116 578,117 577,118 577,119 576,120 576,121 574,123 574,124 572,126 572,127 571,128 571,129 569,131 569,132 568,133 568,134 566,136 566,137 564,139 564,140 563,141 563,142 561,144 561,145 560,146 560,147 558,149 558,150 556,152 556,153 555,154 555,155 553,157 553,158 551,160 551,161 550,162 550,163 549,164 549,165 547,167 547,168 545,170 545,171 544,172 544,173 542,175 542,176 540,178 540,179 539,180 539,181 538,182 538,183 536,185 536,186 534,188 534,189 533,190 533,191 531,193 531,194 529,196 529,197 528,198 528,199 527,200 527,201 525,203 525,204 523,206 523,207 522,208 522,209 520,211 520,212 519,213 519,214 517,216 517,217 515,219 515,220 514,221 514,222 512,224 512,225 511,226 511,227 509,229 509,230 507,232 507,233 506,234 506,235 504,237 504,238 503,239 503,240 501,242 501,243 500,244 500,245 498,247 498,248 496,250 496,251 495,252 495,253 493,255 493,256 492,257 492,258 490,260 490,261 489,262 489,263 488,264 488,266 487,267 487,268 486,269 486,270 484,272 484,273 482,275 482,276 480,278 480,279 479,280 479,281 477,283 477,284 475,286 475,287 474,288 474,289 473,290 473,291 471,293 471,294 470,295 470,296 468,298 468,299 467,300 467,301 466,302 466,303 463,306 463,307 462,308 462,309 461,310 461,311 460,312 459,312 459,313 458,314 458,315 456,317 456,318 455,319 455,320 453,322 453,323 452,324 452,325 449,328 449,329 448,330 448,331 445,334 445,335 443,337 443,338 441,340 441,341 440,342 440,343 438,345 438,346 436,348 436,349 435,350 435,351 433,353 433,354 432,355 432,356 430,358 430,359 429,360 429,361 428,362 428,363 425,366 424,366 423,367 418,367 416,365 414,365 413,364 412,364 407,359 407,358 405,356 405,355 404,354 404,353 402,351 402,350 401,349 401,348 400,347 400,346 398,344 398,343 396,341 396,340 395,339 395,338 393,336 393,335 392,334 392,333 390,331 390,330 389,329 389,328 387,326 387,325 386,324 386,323 384,321 384,320 383,319 383,318 381,316 381,315 380,314 380,313 379,312 379,311 378,310 378,309 376,307 376,306 375,305 375,304 374,303 374,302 372,300 372,299 371,298 371,297 369,295 369,294 368,293 368,292 366,290 366,289 365,288 365,287 363,285 363,284 362,283 362,282 360,280 360,279 358,277 358,276 356,274 356,272 355,271 355,270 354,269 354,268 352,266 352,265 351,264 351,263 349,261 349,260 348,259 348,258 347,257 347,256 345,254 345,253 343,251 343,250 342,249 342,248 341,247 341,246 339,244 339,243 338,242 338,241 336,239 336,238 335,237 335,236 334,235 334,234 332,232 332,231 331,230 331,229 329,227 329,226 328,225 328,224 327,223 327,222 325,220 325,219 324,218 324,217 322,215 322,214 321,213 321,212 319,210 319,209 318,208 318,207 316,205 316,204 315,203 315,202 314,201 314,200 312,198 312,197 311,196 311,195 309,193 309,192 308,191 308,190 306,188 306,187 304,185 304,184 302,182 302,181 299,178 299,177 298,176 298,175 297,174 297,172 295,170 295,168 293,166 293,165 292,164 292,163 290,161 290,160 289,159 289,158 288,157 288,156 286,154 286,153 285,152 285,151 284,150 284,149 282,147 282,146 281,145 281,144 279,142 279,141 278,140 278,139 276,137 276,136 275,135 275,134 274,133 274,132 272,130 272,129 270,127 270,126 269,125 269,124 268,123 268,122 267,121 267,120 265,118 265,117 263,115 263,114 262,113 262,112 261,111 261,110 259,108 259,107 258,106 258,105 256,103 256,102 255,101 255,100 254,99 254,98 252,96 252,95 250,93 250,92 249,91 249,90 248,89 248,88 247,87 247,86 245,84 245,83 243,81 243,80 242,79 242,78 240,76 240,75 239,74 239,73 238,72 238,71 236,69 236,68 235,67 235,66 234,65 234,64 232,62 232,61 231,60 231,59 229,57 229,56 228,55 228,54 226,52 226,51 225,50 225,49 223,47 223,46 222,45 222,44 220,42 220,41 219,40 219,39 218,38 218,37 216,35 216,34 215,33 215,32 213,30 213,29 24,29 24,39 23,40 23,42 24,43 24,45 25,46 25,47 26,48 26,49 28,51 28,52 29,53 29,54 31,56 31,57 32,58 32,59 33,60 33,61 35,63 35,64 37,66 37,67 38,68 38,69 39,70 39,71 40,72 40,73 42,75 42,76 43,77 43,78 45,80 45,81 46,82 46,83 48,85 48,86 49,87 49,88 51,90 51,91 52,92 52,93 53,94 53,95 55,97 55,98 56,99 56,100 58,102 58,103 59,104 59,105 60,106 60,107 62,109 62,110 64,112 64,113 65,114 65,115 66,116 66,117 67,118 67,119 69,121 69,122 70,123 70,124 72,126 72,127 73,128 73,129 75,131 75,132 76,133 76,134 78,136 78,137 79,138 79,139 80,140 80,141 82,143 82,144 83,145 83,146 84,147 84,148 86,150 86,151 88,153 88,154 89,155 89,156 90,157 90,158 92,160 92,161 93,162 93,163 95,165 95,166 96,167 96,168 97,169 97,170 99,172 99,173 100,174 100,175 102,177 102,178 103,179 103,180 104,181 104,182 106,184 106,185 107,186 107,187 109,189 109,190 110,191 110,192 111,193 111,194 113,196 113,197 114,198 114,199 116,201 116,202 117,203 117,204 119,206 119,207 120,208 120,209 121,210 121,211 123,213 123,214 124,215 124,216 126,218 126,219 127,220 127,221 128,222 128,223 130,225 130,226 131,227 131,228 133,230 133,231 134,232 134,233 136,235 136,236 137,237 137,238 139,240 139,241 140,242 140,243 141,244 141,245 143,247 143,248 144,249 144,250 146,252 146,253 147,254 147,255 148,256 148,257 150,259 150,260 152,262 152,263 153,264 153,265 154,266 154,267 155,268 155,269 157,271 157,272 158,273 158,274 160,276 160,277 161,278 161,279 162,280 162,281 164,283 164,284 166,286 166,287 167,288 167,289 168,290 168,291 170,293 170,294 171,295 171,296 173,298 173,299 174,300 174,301 175,302 175,303 177,305 177,306 178,307 178,308 180,310 180,311 181,312 181,313 183,315 183,316 184,317 184,318 185,319 185,320 187,322 187,323 188,324 188,325 189,326 189,327 191,329 191,330 192,331 192,332 194,334 194,335 195,336 195,337 197,339 197,340 198,341 198,342 200,344 200,345 201,346 201,347 203,349 203,350 204,351 204,352 205,353 205,354 207,356 207,357 208,358 208,359 209,360 209,361 211,363 211,364 213,366 213,367 214,368 214,369 215,370 215,371 217,373 217,374 218,375 218,376 219,377 219,378 221,380 221,381 222,382 222,383 224,385 224,386 225,387 225,388 227,390 227,391 228,392 228,393 229,394 229,395 231,397 231,398 233,400 233,402 235,404 235,405 236,406 236,407 238,409 238,410 240,412 240,413 241,414 241,415 242,416 242,417 244,419 244,420 245,421 245,422 247,424 247,425 248,426 248,427 249,428 249,429 251,431 251,432 252,433 252,434 254,436 254,437 255,438 255,439 256,440 256,441 258,443 258,444 259,445 259,446 261,448 261,449 262,450 262,451 264,453 264,454 265,455 265,456 266,457 266,458 268,460 268,461 269,462 269,463 271,465 271,466 272,467 272,468 273,469 273,470 275,472 275,473 276,474 276,475 278,477 278,478 279,479 279,480 281,482 281,483 282,484 282,485 283,486 283,487 285,489 285,490 286,491 286,492 288,494 288,495 289,496 289,497 290,498 290,499 292,501 292,502 294,504 294,505 295,506 295,507 296,508 296,509 297,510 297,511 299,513 299,514 300,515 300,516 302,518 302,519 303,520 303,521 304,522 304,523 306,525 306,526 308,528 308,529 309,530 309,531 311,533 311,535 313,537 313,538 315,540 315,541 316,542 316,543 317,544 317,545 318,546 318,552 317,553 317,554 315,556 314,556 313,557 313,558 312,559 312,560 311,561 311,562 309,564 309,565 308,566 308,567 307,568 307,569 305,571 305,572 304,573 304,574 303,575 303,576 301,578 301,579 300,580 300,581 299,582 299,583 297,585 297,586 296,587 296,588 294,590 294,591 293,592 293,593 292,594 292,595 290,597 290,598 289,599 289,600 288,601 288,602 287,603 287,604 285,606 285,607 284,608 284,609 282,611 282,612 281,613 281,614 280,615 280,616 278,618 278,619 277,620 277,621 276,622 276,623 275,624 275,625 273,627 273,628 272,629 272,630 270,632 270,633 269,634 269,635 268,636 268,637 267,638 267,639 265,641 265,642 264,643 264,644 262,646 262,647 261,648 261,649 260,650 260,651 258,653 258,654 257,655 257,656 256,657 256,658 254,660 254,661 253,662 253,663 252,664 252,665 251,666 251,667 249,669 249,670 248,671 248,672 246,674 246,675 245,676 245,677 244,678 244,679 242,681 242,682 241,683 241,684 240,685 240,686 239,687 239,688 237,690 237,691 236,692 236,693 235,694 235,695 233,697 233,698 232,699 232,700 230,702 230,703 229,704 229,705 228,706 228,707 226,709 226,710 225,711 225,712 224,713 224,714 222,716 222,717 221,718 221,719 220,720 220,721 219,722 219,723 217,725 217,726 216,727 216,728 215,729 215,730 213,732 213,733 212,734 212,735 211,736 211,737 209,739 209,740 208,741 208,742 206,744 206,745 205,746 205,747 204,748 204,749 203,750 203,751 201,753 201,754 200,755 200,756 198,758 198,759 197,760 197,761 196,762 196,763 194,765 194,766 193,767 193,768 192,769 192,770 190,772 190,773 189,774 189,775 188,776 188,777 187,778 187,779 185,781 185,782 184,783 184,784 183,785 183,786 181,788 181,789 180,790 180,791 179,792 179,793 177,795 177,796 176,797 176,798 174,800 174,801 173,802 173,803 172,804 172,805 171,806 171,807 169,809 169,810 168,811 168,812 167,813 167,814 165,816 165,817 164,818 164,819 162,821 162,822 161,823 161,824 160,825 160,826 158,828 158,829 157,830 157,831 156,832 156,833 155,834 155,835 153,837 153,838 152,839 152,840 151,841 151,842 149,844 149,845 148,846 148,847 147,848 147,849 145,851 145,852 144,853 144,854 142,856 142,857 141,858 141,859 140,860 140,861 139,862 139,863 137,865 137,866 136,867 136,868 134,870 134,871 133,872 133,873 132,874 132,875 130,877 130,878 129,879 129,880 128,881 128,882 126,884 126,885 125,886 125,887 124,888 124,889 123,890 123,891 121,893 121,894 120,895 120,896 119,897 119,898 117,900 117,901 116,902 116,903 115,904 115,905 113,907 113,908 112,909 112,910 110,912 110,913 109,914 109,915 108,916 108,917 107,918 107,919 105,921 105,922 104,923 104,924 102,926 102,927 101,928 101,929 100,930 100,931 99,932 99,933 97,935 97,936 96,937 96,938 94,940 94,941 93,942 93,943 92,944 92,945 91,946 91,947 89,949 89,950 88,951 88,952 86,954 86,955 85,956 85,957 84,958 84,959 83,960 83,961 81,963 81,964 80,965 80,966 78,968 78,969 77,970 77,971 76,972 76,973 75,974 75,975 73,977 73,978 72,979 72,980 70,982 70,983 69,984 69,985 68,986 68,987 66,989 66,991 246,991 246,990 247,989 247,988 253,982 253,981 255,979 255,978 256,977 256,976 258,974 258,973 260,971 260,970 261,969 261,968 263,966 263,965 265,963 265,962 266,961 266,960 268,958 268,957 270,955 270,954 271,953 271,952 273,950 273,949 275,947 275,946 276,945 276,944 278,942 278,941 279,940 279,939 281,937 281,936 283,934 283,933 285,931 285,930 286,929 286,928 288,926 288,925 290,923 290,922 291,921 291,920 293,918 293,917 295,915 295,914 296,913 296,912 298,910 298,909 299,908 299,907 301,905 301,904 303,902 303,901 305,899 305,898 306,897 306,896 308,894 308,893 310,891 310,890 311,889 311,888 313,886 313,885 315,883 315,882 316,881 316,880 318,878 318,877 319,876 319,875 321,873 321,872 323,870 323,869 325,867 325,866 326,865 326,864 328,862 328,861 330,859 330,858 331,857 331,856 333,854 333,853 335,851 335,850 336,849 336,848 338,846 338,845 339,844 339,843 341,841 341,840 343,838 343,837 344,836 344,835 346,833 346,832 348,830 348,829 349,828 349,827 351,825 351,824 353,822 353,821 355,819 355,818 356,817 356,816 358,814 358,813 359,812 359,811 361,809 361,808 363,806 363,805 364,804 364,803 366,801 366,800 367,799 367,798 370,795 370,794 371,793 371,792 373,790 373,789 375,787 375,786 376,785 376,784 377,783 377,782 379,780 379,779 381,777 381,776 383,774 383,773 384,772 384,771 386,769 386,768 388,766 388,765 389,764 389,763 391,761 391,760 393,758 393,757 394,756 394,755 396,753 396,752 398,750 398,749 399,748 399,747 401,745 401,744 403,742 403,741 404,740 404,739 406,737 406,736 407,735 407,734 409,732 409,731 411,729 411,728 413,726 413,725 414,724 414,723 416,721 416,720 417,719 417,718 419,716 419,715 421,713 421,712 423,710 423,709 424,708 424,707 426,705 426,704 427,703 427,702 429,700 429,699 431,697 431,696 432,695 432,694 434,692 434,691 436,689 436,688 438,686 438,685 439,684 439,683 441,681 441,680 442,679 442,678 444,676 444,675 446,673 446,672 447,671 447,670 449,668 449,667 451,665 451,664 452,663 452,662 454,660 454,659 456,657 456,656 457,655 457,654 459,652 459,651 461,649 461,648 463,646 463,645 464,644 464,643 466,641 466,640 467,639 467,638 469,636 469,635 471,633 471,632 472,631 472,630 474,628 474,627 476,625 476,624 478,622 478,621 479,620 479,619 481,617 481,616 482,615 482,614 484,612 484,611 486,609 486,608 487,607 487,606 489,604 489,603 491,601 491,600 492,599 492,598 494,596 494,595 496,593 496,592 497,591 497,590 499,588 499,587 501,585 501,584 503,582 503,581 504,580 504,579 506,577 506,576 507,575 507,574 509,572 509,571 511,569 511,568 512,567 512,566 514,564 514,563 516,561 516,560 517,559 517,558 519,556 519,555 521,553 521,552 522,551 522,550 524,548 524,547 526,545 526,544 527,543 527,542 529,540 529,539 531,537 531,536 532,535 532,534 534,532 534,531 536,529 536,528 537,527 537,526 539,524 539,523 541,521 541,520 542,519 542,518 544,516 544,515 546,513 546,512 547,511 547,510 549,508 549,507 551,505 551,504 552,503 552,502 554,500 554,499 556,497 556,496 557,495 557,494 559,492 559,491 560,490 560,489 562,487 562,486 564,484 564,483 566,481 566,480 567,479 567,478 569,476 569,475 571,473 571,472 572,471 572,470 574,468 574,467 575,466 575,465 577,463 577,462 579,460 579,459 581,457 581,456 582,455 582,454 584,452 584,451 585,450 585,449 587,447 587,446 589,444 589,443 591,441 591,440 592,439 592,438 594,436 594,435 596,433 596,432 597,431 597,430 599,428 599,427 600,426 600,425 602,423 602,422 604,420 604,419 606,417 606,416 607,415 607,414 609,412 609,411 610,410 610,409 612,407 612,406 614,404 614,403 615,402 615,401 617,399 617,398 619,396 619,395 621,393 621,392 622,391 622,390 623,389 623,388 625,386 625,385 627,383 627,382 629,380 629,379 631,377 631,376 632,375 632,374 634,372 634,371 635,370 635,369 637,367 637,366 639,364 639,363 640,362 640,361 642,359 642,358 644,356 644,355 646,353 646,352 647,351 647,350 649,348 649,347 650,346 650,345 652,343 652,342 654,340 654,339 655,338 655,337 657,335 657,334 659,332 659,331 661,329 661,328 662,327 662,326 663,325 663,324 665,322 665,321 667,319 667,318 669,316 669,315 670,314 670,313 672,311 672,310 674,308 674,307 675,306 675,305 677,303 677,302 679,300 679,299 680,298 680,297 682,295 682,294 684,292 684,291 685,290 685,289 687,287 687,286 689,284 689,283 690,282 690,281 692,279 692,278 694,276 694,275 695,274 695,273 697,271 697,270 699,268 699,267 700,266 700,265 702,263 702,262 703,261 703,260 705,258 705,257 707,255 707,254 708,253 708,252 710,250 710,249 712,247 712,246 713,245 713,244 715,242 715,241 717,239 717,238 718,237 718,236 720,234 720,233 722,231 722,230 723,229 723,228 725,226 725,225 727,223 727,222 728,221 728,220 730,218 730,217 732,215 732,214 734,212 734,211 735,210 735,209 737,207 737,206 739,204 739,203 740,202 740,201 742,199 742,198 743,197 743,196 745,194 745,193 747,191 747,190 748,189 748,188 750,186 750,185 752,183 752,182 753,181 753,180 755,178 755,177 757,175 757,174 758,173 758,172 760,170 760,169 762,167 762,166 763,165 763,164 765,162 765,161 767,159 767,158 768,157 768,156 770,154 770,153 772,151 772,150 774,148 774,147 775,146 775,145 777,143 777,142 778,141 778,140 780,138 780,137 782,135 782,134 783,133 783,132 785,130 785,129 787,127 787,126 788,125 788,124 790,122 790,121 792,119 792,118 793,117 793,116 795,114 795,113 797,111 797,110 798,109 798,108 800,106 800,105 802,103 802,102 803,101 803,100 805,98 805,97 807,95 807,94 808,93 808,92 810,90 810,89 812,87 812,86 813,85 813,84 815,82 815,81 817,79 817,78 818,77 818,76 820,74 820,73 822,71 822,70 823,69 823,68 825,66 825,65 827,63 827,62 828,61 828,60 830,58 830,57 832,55 832,54 833,53 833,52 835,50 835,49 837,47 837,46 838,45 838,44 840,42 840,41 842,39 842,38 843,37 843,36 845,34 845,33 847,31 847,30 848,29 848,28 849,27 849,26 847,24 Z" fill="white" stroke="white" stroke-width="1"/>
<path d="M1044,23 1044,24 1042,26 1042,27 1041,28 1041,29 1039,31 1039,32 1038,33 1038,34 1036,36 1036,37 1035,38 1035,39 1033,41 1033,42 1032,43 1032,44 1030,46 1030,47 1029,48 1029,49 1027,51 1027,52 1025,54 1025,55 1024,56 1024,57 1023,58 1023,59 1021,61 1021,62 1019,64 1019,65 1018,66 1018,67 1017,68 1017,69 1015,71 1015,72 1014,73 1014,74 1012,76 1012,77 1011,78 1011,79 1009,81 1009,82 1008,83 1008,84 1006,86 1006,87 1005,88 1005,89 1003,91 1003,92 1001,94 1001,95 1000,96 1000,97 999,98 999,99 997,101 997,102 995,104 995,105 994,106 994,107 993,108 993,109 991,111 991,112 990,113 990,114 988,116 988,117 987,118 987,119 985,121 985,122 983,124 983,125 982,126 982,127 981,128 981,129 979,131 979,132 977,134 977,135 976,136 976,137 975,138 975,139 973,141 973,142 971,144 971,145 970,146 970,147 968,149 968,150 967,151 967,152 966,153 966,154 964,156 964,157 963,158 963,159 961,161 961,162 959,164 959,165 958,166 958,167 957,168 957,169 955,171 955,172 953,174 953,175 952,176 952,177 951,178 951,179 949,181 949,182 947,184 947,185 946,186 946,187 944,189 944,190 943,191 943,192 942,193 942,194 940,196 940,197 939,198 939,199 937,201 937,202 935,204 935,205 934,206 934,207 933,208 933,209 931,211 931,212 929,214 929,215 928,216 928,217 927,218 927,219 925,221 925,222 923,224 923,225 922,226 922,227 920,229 920,230 919,231 919,232 917,234 917,235 916,236 916,237 915,238 915,239 913,241 913,242 912,243 912,244 910,246 910,247 909,248 909,249 907,251 907,252 905,254 905,255 904,256 904,257 903,258 903,259 901,261 901,262 899,264 899,265 898,266 898,267 896,269 896,270 895,271 895,272 893,274 893,275 892,276 892,277 890,279 890,280 889,281 889,282 888,283 888,284 886,286 886,287 885,288 885,289 883,291 883,292 881,294 881,295 880,296 880,297 878,299 878,300 877,301 877,302 875,304 875,305 874,306 874,307 872,309 872,310 871,311 871,312 869,314 869,315 868,316 868,317 866,319 866,320 865,321 865,322 864,323 864,324 862,326 862,327 860,329 860,330 859,331 859,332 857,334 857,335 856,336 856,337 854,339 854,340 853,341 853,342 851,344 851,345 850,346 850,347 848,349 848,350 847,351 847,352 845,354 845,355 844,356 844,357 842,359 842,360 841,361 841,362 839,364 839,365 838,366 838,367 836,369 836,370 835,371 835,372 833,374 833,375 832,376 832,377 830,379 830,380 829,381 829,382 827,384 827,385 826,386 826,387 824,389 824,390 823,391 823,392 821,394 821,395 820,396 820,397 818,399 818,400 817,401 817,402 815,404 815,405 814,406 814,407 812,409 812,410 811,411 811,412 809,414 809,415 808,416 808,417 806,419 806,420 805,421 805,422 803,424 803,425 802,426 802,427 800,429 800,430 799,431 799,432 797,434 797,435 796,436 796,437 794,439 794,440 793,441 793,442 791,444 791,445 790,446 790,447 788,449 788,450 787,451 787,452 785,454 785,455 784,456 784,457 782,459 782,460 781,461 781,462 779,464 779,465 777,467 777,468 776,469 776,470 775,471 775,472 773,474 773,475 772,476 772,477 770,479 770,480 769,481 769,482 767,484 767,485 766,486 766,487 764,489 764,490 763,491 763,492 761,494 761,495 760,496 760,497 758,499 758,500 757,501 757,502 755,504 755,505 753,507 753,508 752,509 752,510 751,511 751,512 749,514 749,515 748,516 748,517 746,519 746,520 745,521 745,522 743,524 743,525 742,526 742,527 740,529 740,530 738,532 738,533 737,534 737,535 736,536 736,537 734,539 734,540 733,541 733,542 731,544 731,545 729,547 729,548 728,549 728,550 726,552 726,553 725,554 725,555 724,556 724,557 722,559 722,560 720,562 720,563 719,564 719,565 718,566 718,567 716,569 716,570 714,572 714,573 713,574 713,575 712,576 712,577 710,579 710,580 709,581 709,582 707,584 707,585 705,587 705,588 704,589 704,590 702,592 702,593 701,594 701,595 700,596 700,597 698,599 698,600 696,602 696,603 695,604 695,605 694,606 694,607 692,609 692,610 690,612 690,613 689,614 689,615 688,616 688,617 686,619 686,620 684,622 684,623 683,624 683,625 682,626 682,627 680,629 680,630 678,632 678,633 677,634 677,635 676,636 676,637 674,639 674,640 672,642 672,643 671,644 671,645 670,646 670,647 668,649 668,650 666,652 666,653 665,654 665,655 664,656 664,657 662,659 662,660 660,662 660,663 659,664 659,665 657,667 657,668 656,669 656,670 654,672 654,673 653,674 653,675 651,677 651,678 650,679 650,680 648,682 648,683 647,684 647,685 645,687 645,688 644,689 644,690 642,692 642,693 641,694 641,695 640,696 640,697 638,699 638,700 636,702 636,703 635,704 635,705 633,707 633,708 632,709 632,710 630,712 630,713 629,714 629,715 627,717 627,718 626,719 626,720 624,722 624,723 623,724 623,725 621,727 621,728 620,729 620,730 618,732 618,733 617,734 617,735 616,736 616,737 614,739 614,740 612,742 612,743 611,744 611,745 609,747 609,748 608,749 608,750 606,752 606,753 605,754 605,755 603,757 603,758 602,759 602,760 600,762 600,763 599,764 599,765 597,767 597,768 596,769 596,770 594,772 594,773 593,774 593,775 592,776 592,777 590,779 590,780 588,782 588,783 587,784 587,785 585,787 585,788 584,789 584,790 582,792 582,793 581,794 581,795 579,797 579,798 578,799 578,800 576,802 576,803 575,804 575,805 573,807 573,808 571,810 571,811 570,812 570,813 569,814 569,815 567,817 567,818 566,819 566,820 564,822 564,823 563,824 563,825 561,827 561,828 560,829 560,830 558,832 558,833 556,835 556,836 555,837 555,838 554,839 554,840 552,842 552,843 551,844 551,845 549,847 549,848 547,850 547,851 546,852 546,853 545,854 545,855 543,857 543,858 542,859 542,860 540,862 540,863 539,864 539,868 538,869 538,870 537,871 537,878 536,879 536,886 537,887 536,888 536,894 537,895 537,907 538,908 538,909 539,910 539,914 540,915 540,922 541,923 541,927 542,928 542,929 543,930 543,932 544,933 544,936 545,937 545,938 546,939 546,940 547,941 547,942 549,944 549,945 550,946 550,947 551,948 551,949 552,950 552,951 553,952 553,953 555,955 555,956 557,958 557,959 558,960 558,961 563,966 563,967 564,968 564,969 568,973 568,974 569,975 570,975 571,976 571,977 572,977 576,981 577,981 580,984 581,984 590,993 591,993 592,994 593,994 594,995 595,995 597,997 598,997 599,998 600,998 601,999 602,999 603,1000 604,1000 605,1001 606,1001 607,1002 1213,1002 1216,999 1217,999 1223,993 1223,992 1224,991 1224,990 1226,988 1226,987 1228,985 1228,984 1229,983 1229,982 1231,980 1231,979 1232,978 1232,977 1233,976 1233,975 1234,974 1234,973 1235,972 1235,971 1236,970 1236,969 1238,967 1238,966 1239,965 1239,964 1240,963 1240,962 1242,960 1242,959 1243,958 1243,957 1244,956 1244,955 1246,953 1246,952 1247,951 1247,950 1248,949 1248,948 1250,946 1250,944 1252,942 1252,941 1253,940 1253,939 1254,938 1254,937 1255,936 1255,935 1257,933 1257,932 1258,931 1258,930 1260,928 1260,927 1261,926 1261,925 1263,923 1263,922 1264,921 1264,920 1266,918 1266,917 1267,916 1267,915 1268,914 1268,913 1270,911 1270,910 1271,909 1271,908 1272,907 1272,906 1273,905 1273,904 1275,902 1275,901 1276,900 1276,899 1278,897 1278,896 1279,895 1279,894 1280,893 1280,892 1281,891 1281,890 1283,888 1283,887 1284,886 1284,885 1285,884 1285,883 1287,881 1287,880 1288,879 1288,878 1289,877 1289,876 1290,875 1290,874 1292,872 1292,871 1293,870 1293,869 1294,868 1294,867 1295,866 1295,865 1297,863 1298,863 1298,851 1297,850 1297,847 1296,846 1296,844 1294,842 1294,841 1293,840 1293,839 1290,836 1288,836 1287,835 773,835 769,831 769,830 768,829 768,824 769,823 769,822 770,821 770,815 771,814 771,813 773,811 773,810 774,809 774,808 775,807 775,806 777,804 777,803 779,801 779,800 780,799 780,798 782,796 782,795 783,794 783,793 784,792 784,791 785,790 785,789 787,787 787,786 788,785 788,784 789,783 789,782 791,780 791,778 792,777 792,776 795,773 795,772 797,770 797,769 799,767 799,766 800,765 800,764 802,762 802,761 803,760 803,759 804,758 804,757 806,755 806,754 807,753 807,752 808,751 808,750 810,748 810,747 812,745 812,744 814,742 814,741 816,739 816,738 817,737 817,736 819,734 819,733 820,732 820,731 821,730 821,729 823,727 823,726 824,725 824,724 825,723 825,722 826,721 826,720 827,719 827,718 828,717 828,716 831,713 831,712 833,710 833,708 834,707 834,706 837,703 837,702 839,700 839,699 841,697 841,696 842,695 842,694 844,692 844,691 846,689 846,688 847,687 847,686 848,685 848,684 850,682 850,680 851,679 851,678 853,676 853,675 855,673 855,672 856,671 856,670 857,669 857,668 858,667 858,666 860,664 860,663 862,661 862,659 866,655 866,654 867,653 867,652 869,650 869,649 870,648 870,647 871,646 871,645 873,643 873,642 874,641 874,640 875,639 875,638 876,637 876,636 877,635 877,634 878,633 878,632 879,631 879,630 881,628 881,627 883,625 883,624 885,622 885,621 887,619 887,618 890,615 890,614 891,613 891,612 893,610 893,609 894,608 894,607 895,606 895,605 897,603 897,602 899,600 899,599 900,598 900,597 902,595 902,594 903,593 903,592 904,591 904,590 906,588 906,587 907,586 907,585 909,583 909,582 911,580 911,579 912,578 912,577 914,575 914,574 915,573 915,572 916,571 916,570 918,568 918,567 919,566 919,565 921,563 921,562 922,561 922,560 923,559 923,558 925,556 925,554 928,551 928,549 932,545 932,544 933,543 933,542 935,540 935,539 936,538 936,537 938,535 938,534 939,533 939,532 941,530 941,529 942,528 942,527 944,525 944,524 945,523 945,522 947,520 947,519 948,518 948,517 950,515 950,514 951,513 951,512 953,510 953,509 954,508 954,507 956,505 956,504 957,503 957,502 959,500 959,499 960,498 960,497 962,495 962,494 963,493 963,492 965,490 965,489 966,488 966,487 967,486 967,485 969,483 969,482 970,481 970,480 972,478 972,477 974,475 974,474 975,473 975,472 976,471 976,470 978,468 978,467 979,466 979,465 981,463 981,462 983,460 983,459 984,458 984,457 986,455 986,454 987,453 987,452 988,451 988,450 990,448 990,447 991,446 991,445 993,443 993,442 994,441 994,440 996,438 996,437 997,436 997,435 999,433 999,432 1000,431 1000,430 1002,428 1002,427 1003,426 1003,425 1005,423 1005,422 1006,421 1006,420 1008,418 1008,417 1009,416 1009,415 1011,413 1011,412 1012,411 1012,410 1014,408 1014,407 1015,406 1015,405 1017,403 1017,402 1018,401 1018,400 1019,399 1019,398 1021,396 1021,395 1022,394 1022,393 1024,391 1024,390 1025,389 1025,388 1027,386 1027,385 1029,383 1029,382 1030,381 1030,380 1032,378 1032,377 1033,376 1033,375 1035,373 1035,372 1036,371 1036,370 1037,369 1037,368 1039,366 1039,365 1040,364 1040,363 1042,361 1042,360 1044,358 1044,357 1045,356 1045,355 1047,353 1047,352 1048,351 1048,350 1049,349 1049,348 1051,346 1051,345 1053,343 1053,342 1054,341 1054,340 1055,339 1055,338 1057,336 1057,335 1058,334 1058,333 1059,332 1059,331 1061,329 1061,328 1063,326 1063,325 1064,324 1064,323 1066,321 1066,320 1067,319 1067,318 1069,316 1069,315 1070,314 1070,313 1072,311 1072,310 1073,309 1073,308 1074,307 1074,306 1076,304 1076,303 1078,301 1078,300 1079,299 1079,298 1080,297 1080,296 1082,294 1082,293 1084,291 1084,290 1085,289 1085,288 1087,286 1087,285 1088,284 1088,283 1090,281 1090,280 1091,279 1091,278 1092,277 1092,276 1094,274 1094,273 1096,271 1096,270 1097,269 1097,268 1098,267 1098,266 1100,264 1100,263 1102,261 1102,260 1103,259 1103,258 1104,257 1104,256 1106,254 1106,253 1107,252 1107,251 1109,249 1109,248 1110,247 1110,246 1112,244 1112,243 1113,242 1113,241 1115,239 1115,238 1116,237 1116,236 1118,234 1118,233 1119,232 1119,231 1121,229 1121,228 1122,227 1122,226 1124,224 1124,223 1125,222 1125,221 1127,219 1127,218 1128,217 1128,216 1129,215 1129,214 1131,212 1131,211 1133,209 1133,208 1134,207 1134,206 1135,205 1135,204 1137,202 1137,201 1139,199 1139,198 1140,197 1140,196 1142,194 1142,193 1143,192 1143,191 1144,190 1144,189 1146,187 1146,186 1147,185 1147,184 1149,182 1149,181 1151,179 1151,178 1152,177 1152,176 1153,175 1153,174 1155,172 1155,171 1157,169 1157,168 1158,167 1158,166 1159,165 1159,164 1161,162 1161,161 1163,159 1163,158 1164,157 1164,156 1166,154 1166,153 1167,152 1167,151 1168,150 1168,149 1170,147 1170,146 1171,145 1171,144 1173,142 1173,141 1174,140 1174,139 1176,137 1176,136 1177,135 1177,134 1179,132 1179,131 1180,130 1180,129 1182,127 1182,126 1183,125 1183,124 1185,122 1185,121 1187,119 1187,118 1188,117 1188,116 1189,115 1189,114 1190,113 1190,112 1192,110 1192,109 1194,107 1194,106 1195,105 1195,104 1197,102 1197,101 1198,100 1198,99 1199,98 1199,97 1201,95 1201,94 1203,92 1203,91 1204,90 1204,89 1206,87 1206,86 1207,85 1207,84 1208,83 1208,82 1210,80 1210,79 1212,77 1212,76 1213,75 1213,74 1214,73 1214,72 1216,70 1216,69 1218,67 1218,66 1219,65 1219,64 1220,63 1220,62 1222,60 1222,59 1223,58 1223,57 1225,55 1225,54 1226,53 1226,52 1228,50 1228,49 1229,48 1229,47 1231,45 1231,44 1232,43 1232,42 1234,40 1234,39 1235,38 1235,37 1237,35 1237,34 1238,33 1238,32 1240,30 1240,29 1241,28 1241,27 1242,26 1239,23 Z" fill="white" stroke="white" stroke-width="1"/>
</svg>